<svg xmlns="http://www.w3.org/2000/svg" version="1.1" xmlns:xlink="http://www.w3.org/1999/xlink" xmlns:svgjs="http://svgjs.dev/svgjs" width="180" height="180"><svg version="1.1" id="SvgjsSvg1007" xmlns="http://www.w3.org/2000/svg" xmlns:xlink="http://www.w3.org/1999/xlink" x="0px" y="0px" viewBox="0 0 180 180" enable-background="new 0 0 180 180" xml:space="preserve">
<g>
	<g id="SvgjsG1006">
		<path fill="#ADEBF6" d="M154.623,90c0,35.69-28.934,64.623-64.623,64.623c-35.688,0-64.622-28.934-64.622-64.623
			c0-35.689,28.934-64.623,64.622-64.623C125.689,25.377,154.623,54.311,154.623,90z"></path>
	</g>
	<g>
		<g>
			<path fill="#FFFFFF" d="M138.926,109.08c0-2.701-2.192-4.895-4.89-4.895c2.697,0,4.89-2.189,4.89-4.891
				c0,2.701,2.195,4.891,4.893,4.891C141.122,104.186,138.926,106.379,138.926,109.08z"></path>
		</g>
		<g>
			<path fill="#FFFFFF" d="M129.384,98.152c0-2.045-1.661-3.709-3.705-3.709c2.044,0,3.705-1.656,3.705-3.705
				c0,2.049,1.664,3.705,3.707,3.705C131.048,94.443,129.384,96.107,129.384,98.152z"></path>
		</g>
		<g>
			<path fill="#FFFFFF" d="M60.692,45.283c0-1.553-1.261-2.814-2.812-2.814c1.551,0,2.812-1.26,2.812-2.812
				c0,1.553,1.264,2.812,2.813,2.812C61.956,42.469,60.692,43.73,60.692,45.283z"></path>
		</g>
		<g>
			<path fill="#FFFFFF" d="M67.599,49.066c-0.746,0-1.353,0.605-1.353,1.354c0-0.748-0.605-1.354-1.353-1.354
				c0.747,0,1.353-0.605,1.353-1.351C66.247,48.461,66.853,49.066,67.599,49.066z"></path>
		</g>
		<g>
			<path fill="#FFFFFF" d="M123.138,47.381c-1.129,0-2.045,0.916-2.045,2.043c0-1.127-0.914-2.043-2.042-2.043
				c1.128,0,2.042-0.916,2.042-2.043C121.093,46.465,122.009,47.381,123.138,47.381z"></path>
		</g>
		<g>
			<path fill="#FFFFFF" d="M127.723,57.754c-1.127,0-2.044,0.916-2.044,2.041c0-1.125-0.914-2.041-2.043-2.041
				c1.129,0,2.043-0.918,2.043-2.045C125.679,56.836,126.596,57.754,127.723,57.754z"></path>
		</g>
		<g>
			<path fill="#FFFFFF" d="M127.461,103.932c-0.983,0-1.782,0.799-1.782,1.781c0-0.982-0.797-1.781-1.78-1.781
				c0.983,0,1.78-0.799,1.78-1.781C125.679,103.133,126.478,103.932,127.461,103.932z"></path>
		</g>
		<g>
			<path fill="#FFFFFF" d="M120.957,55.186c-1.867,0-3.383,1.516-3.383,3.381c0-1.865-1.515-3.381-3.383-3.381
				c1.868,0,3.383-1.518,3.383-3.383C117.574,53.668,119.089,55.186,120.957,55.186z"></path>
		</g>
		<g>
			<path fill="#FFFFFF" d="M48.423,81.246c-1.033,0-1.872,0.838-1.872,1.869c0-1.031-0.836-1.869-1.87-1.869
				c1.034,0,1.87-0.838,1.87-1.869C46.551,80.408,47.39,81.246,48.423,81.246z"></path>
		</g>
		<g>
			<path fill="#FFFFFF" d="M50.037,93.689c-1.923,0-3.485,1.562-3.485,3.484c0-1.922-1.56-3.484-3.484-3.484
				c1.925,0,3.484-1.565,3.484-3.484C46.551,92.125,48.114,93.689,50.037,93.689z"></path>
		</g>
		<g>
			<path fill="#FFFFFF" d="M46.552,85.498c-2.888,0-5.233,2.344-5.233,5.227c0-2.883-2.34-5.227-5.229-5.227
				c2.89,0,5.229-2.348,5.229-5.23C41.319,83.15,43.665,85.498,46.552,85.498z"></path>
		</g>
	</g>
	<g>
		<g>
			<g>
				<g id="SvgjsG1005">
					
						<rect x="87.638" y="112.531" transform="matrix(0.0022 -1 1 0.0022 -53.2786 241.7215)" fill-rule="evenodd" clip-rule="evenodd" fill="#FFDB76" width="13.702" height="70.056"></rect>
				</g>
				<g>
					<g>
						<polygon fill-rule="evenodd" clip-rule="evenodd" fill="#FFDB76" points="129.502,154.488 129.514,148.906 59.458,148.5 
							59.446,154.332 						"></polygon>
					</g>
				</g>
				<g>
					
						<rect x="113.972" y="146.595" transform="matrix(0.0023 -1 1 0.0023 -27.0701 268.1032)" fill-rule="evenodd" clip-rule="evenodd" fill="#333333" width="13.702" height="2.045"></rect>
				</g>
				<g>
					
						<rect x="106.893" y="146.569" transform="matrix(0.0022 -1 1 0.0022 -34.0997 261.0093)" fill-rule="evenodd" clip-rule="evenodd" fill="#333333" width="13.702" height="2.046"></rect>
				</g>
				<g>
					
						<rect x="104.657" y="146.362" transform="matrix(0.7087 -0.7055 0.7055 0.7087 -73.293 117.727)" fill-rule="evenodd" clip-rule="evenodd" fill="#333333" width="2.501" height="2.501"></rect>
				</g>
				<g>
					
						<rect x="100.427" y="146.29" transform="matrix(0.7085 -0.7057 0.7057 0.7085 -74.4834 114.7711)" fill-rule="evenodd" clip-rule="evenodd" fill="#333333" width="2.501" height="2.501"></rect>
				</g>
			</g>
			<g>
				<g id="SvgjsG1004">
					
						<rect x="79.319" y="81.45" transform="matrix(0.0012 -1 1 0.0012 -30.4126 202.5065)" fill-rule="evenodd" clip-rule="evenodd" fill="#FF916E" width="13.702" height="70.056"></rect>
				</g>
				<g>
					<polygon fill-rule="evenodd" clip-rule="evenodd" fill="#FF916E" points="121.189,123.371 121.196,117.789 51.14,117.457 
						51.133,123.287 					"></polygon>
				</g>
				<g>
					
						<rect x="105.653" y="115.487" transform="matrix(0.0011 -1 1 0.0011 -4.1346 228.8801)" fill-rule="evenodd" clip-rule="evenodd" fill="#FFFFFF" width="13.701" height="2.046"></rect>
				</g>
				<g>
					
						<rect x="98.572" y="115.468" transform="matrix(0.0012 -1 1 0.0012 -11.1958 221.7739)" fill-rule="evenodd" clip-rule="evenodd" fill="#FFFFFF" width="13.702" height="2.046"></rect>
				</g>
				<g>
					
						<rect x="96.337" y="115.269" transform="matrix(0.7081 -0.7061 0.7061 0.7081 -53.7907 102.923)" fill-rule="evenodd" clip-rule="evenodd" fill="#333333" width="2.501" height="2.501"></rect>
				</g>
				<g>
					
						<rect x="92.107" y="115.203" transform="matrix(0.7081 -0.7061 0.7061 0.7081 -54.9785 99.9168)" fill-rule="evenodd" clip-rule="evenodd" fill="#333333" width="2.501" height="2.501"></rect>
				</g>
			</g>
			<g>
				<g>
					<path fill-rule="evenodd" clip-rule="evenodd" fill="#333333" d="M109.076,123.271v17.459H58.815
						c-4.645-0.207-8.348-4.041-8.348-8.734c0-4.633,3.596-8.422,8.149-8.725H109.076z"></path>
				</g>
				<g>
					<path fill-rule="evenodd" clip-rule="evenodd" fill="#FFFFFF" d="M109.076,124.535v14.932h-49.1
						c-4.316,0-7.814-3.346-7.814-7.471c0-3.99,3.267-7.246,7.38-7.461H109.076z"></path>
				</g>
				<g>
					<polygon fill-rule="evenodd" clip-rule="evenodd" fill="#B2B2B2" points="93.935,139.467 93.97,129.455 92.679,129.463 
						92.679,139.467 					"></polygon>
				</g>
				<g>
					<g>
						<polygon fill-rule="evenodd" clip-rule="evenodd" fill="#FF916E" points="86.192,129.498 92.711,129.455 92.823,146.936 
							89.538,144.17 86.301,146.975 						"></polygon>
					</g>
					<g opacity="0.5">
						
							<rect x="86.265" y="139.665" transform="matrix(1 -0.0064 0.0064 1 -0.8967 0.5725)" fill-rule="evenodd" clip-rule="evenodd" fill="#FF916E" width="6.522" height="3.065"></rect>
					</g>
				</g>
			</g>
		</g>
		<g>
			<g>
				<path fill="#E9AA89" d="M113.459,83.803l-3.042-25.924c0-10.064-9.142-18.223-20.418-18.223
					c-11.276,0-20.417,8.158-20.417,18.223L66.54,83.803c-0.34,1.436-0.521,2.924-0.521,4.449c0,11.822,10.736,21.406,23.981,21.406
					c13.245,0,23.982-9.584,23.982-21.406C113.982,86.727,113.801,85.238,113.459,83.803z"></path>
			</g>
			<g>
				<path fill="#B3B3B3" d="M113.459,83.803l-3.042-25.924c0-10.064-9.142-18.223-20.418-18.223
					c-11.276,0-20.417,8.158-20.417,18.223L66.54,83.803c-0.34,1.436-0.521,2.924-0.521,4.449c0,11.822,10.736,21.406,23.981,21.406
					c13.245,0,23.982-9.584,23.982-21.406C113.982,86.727,113.801,85.238,113.459,83.803z"></path>
			</g>
			<g>
				<path fill="#333333" d="M98.589,41.342c-2.628-1.039-5.521-1.686-8.59-1.686c-3.216,0-6.258,0.662-8.963,1.846
					c-2.599,1.135,8.963,5.402,8.963,5.402S101.636,42.545,98.589,41.342z"></path>
			</g>
			<g>
				<path fill="#FF916E" d="M89.999,63.119c-4.321,1.977-4.537,4.119-4.537,4.119l4.537,5.602l4.537-5.602
					C94.537,67.238,94.322,65.096,89.999,63.119z"></path>
			</g>
			<g>
				<g>
					<path fill="#FF916E" d="M89.999,63.119c-4.321,1.977-4.537,4.119-4.537,4.119l4.725,3.727l4.35-3.727
						C94.537,67.238,94.322,65.096,89.999,63.119z"></path>
				</g>
			</g>
			<g>
				<path fill="#FFDB76" d="M89.999,63.119c-4.321,1.977-4.537,4.119-4.537,4.119l4.537,2.656l4.537-2.656
					C94.537,67.238,94.322,65.096,89.999,63.119z"></path>
			</g>
			<g>
				<g>
					<path fill="#FFFFFF" d="M109.832,57.752c0,5.301-4.298,9.6-9.599,9.6c-5.302,0-9.6-4.299-9.6-9.6c0-5.301,4.298-9.6,9.6-9.6
						C105.534,48.152,109.832,52.451,109.832,57.752z"></path>
				</g>
				<g>
					<path fill="#FFFFFF" d="M89.367,57.752c0,5.301-4.299,9.6-9.6,9.6c-5.301,0-9.599-4.299-9.599-9.6c0-5.301,4.298-9.6,9.599-9.6
						C85.068,48.152,89.367,52.451,89.367,57.752z"></path>
				</g>
				<g>
					<g>
						<circle fill="#FFDB76" cx="79.767" cy="57.752" r="4.375"></circle>
					</g>
					<g>
						<path fill="#333333" d="M82.626,57.752c0,1.578-1.28,2.859-2.859,2.859c-1.578,0-2.858-1.281-2.858-2.859
							c0-1.578,1.28-2.859,2.858-2.859C81.346,54.893,82.626,56.174,82.626,57.752z"></path>
					</g>
					<g>
						<path fill="#FFFFFF" d="M78.528,55.756c0,0.418-0.339,0.756-0.757,0.756c-0.417,0-0.757-0.338-0.757-0.756
							c0-0.418,0.34-0.756,0.757-0.756C78.189,55,78.528,55.338,78.528,55.756z"></path>
					</g>
				</g>
				<g>
					<g>
						<path fill="#FFDB76" d="M104.608,57.752c0,2.418-1.96,4.375-4.375,4.375c-2.416,0-4.376-1.957-4.376-4.375
							c0-2.416,1.96-4.375,4.376-4.375C102.648,53.377,104.608,55.336,104.608,57.752z"></path>
					</g>
					<g>
						<path fill="#333333" d="M103.09,57.752c0,1.578-1.279,2.859-2.857,2.859c-1.579,0-2.859-1.281-2.859-2.859
							c0-1.578,1.28-2.859,2.859-2.859C101.811,54.893,103.09,56.174,103.09,57.752z"></path>
					</g>
					<g>
						<path fill="#FFFFFF" d="M98.992,55.756c0,0.418-0.338,0.756-0.755,0.756c-0.419,0-0.756-0.338-0.756-0.756
							c0-0.418,0.337-0.756,0.756-0.756C98.654,55,98.992,55.338,98.992,55.756z"></path>
					</g>
				</g>
			</g>
			<g>
				<path fill="#B3B3B3" d="M112.484,95.709c0.085-0.205,0.163-0.414,0.241-0.621c0.041-0.105,0.082-0.209,0.119-0.314
					c0.067-0.19,0.13-0.381,0.191-0.572c0.042-0.129,0.086-0.258,0.124-0.391c0.055-0.18,0.104-0.359,0.153-0.541
					c0.04-0.148,0.079-0.295,0.114-0.445c0.043-0.17,0.082-0.344,0.118-0.518c0.037-0.164,0.068-0.33,0.101-0.496
					c0.03-0.162,0.061-0.324,0.087-0.486c0.03-0.188,0.055-0.373,0.079-0.561c0.02-0.148,0.041-0.297,0.057-0.445
					c0.023-0.219,0.04-0.439,0.056-0.66c0.01-0.121,0.021-0.242,0.028-0.365c0.018-0.344,0.029-0.691,0.029-1.041
					c0-0.291-0.011-0.58-0.025-0.869c-0.056-1.223-0.222-2.418-0.497-3.58l-1.553-13.225c-4.695-2.211-10.423,3.824-6.298,12.232
					c2.227,4.541,4.307,8.385,5.965,11.311c-3.887,6.709-12.084,11.336-21.574,11.336c-9.489,0-17.687-4.627-21.573-11.336
					c1.658-2.926,3.738-6.77,5.966-11.311c4.124-8.408-1.604-14.443-6.3-12.232L66.54,83.803c-0.273,1.162-0.44,2.357-0.496,3.58
					c-0.015,0.289-0.025,0.578-0.025,0.869c0,0.35,0.011,0.697,0.029,1.041c0.007,0.123,0.019,0.244,0.027,0.365
					c0.017,0.221,0.033,0.441,0.056,0.66c0.017,0.148,0.038,0.297,0.057,0.445c0.025,0.188,0.051,0.373,0.08,0.561
					c0.026,0.162,0.057,0.324,0.087,0.486c0.032,0.166,0.064,0.332,0.1,0.496c0.037,0.174,0.076,0.348,0.119,0.518
					c0.036,0.15,0.074,0.297,0.114,0.445c0.049,0.182,0.099,0.361,0.152,0.541c0.04,0.133,0.083,0.262,0.125,0.391
					c0.062,0.191,0.123,0.383,0.19,0.572c0.037,0.105,0.079,0.209,0.12,0.314c0.078,0.207,0.156,0.416,0.241,0.621l0,0l0,0
					c3.394,8.145,12.179,13.949,22.483,13.949C100.305,109.658,109.09,103.853,112.484,95.709L112.484,95.709L112.484,95.709z"></path>
			</g>
			<g>
				<g>
					<g>
						<path fill="#FFFFFF" d="M78.985,110.844h-0.488c0,1.195,0.488,2.068,0.488,2.068s0.488-0.873,0.488-2.068H78.985z"></path>
					</g>
					<g>
						<path fill="#FFFFFF" d="M81.307,112.621h-0.488c0,1.195,0.488,2.066,0.488,2.066s0.488-0.871,0.488-2.066H81.307z"></path>
					</g>
					<g>
						<path fill="#FFFFFF" d="M83.629,110.844h-0.488c0,1.195,0.488,2.068,0.488,2.068s0.489-0.873,0.489-2.068H83.629z"></path>
					</g>
				</g>
				<g>
					<g>
						<path fill="#FFFFFF" d="M96.371,110.844h-0.489c0,1.195,0.489,2.068,0.489,2.068s0.487-0.873,0.487-2.068H96.371z"></path>
					</g>
					<g>
						<path fill="#FFFFFF" d="M98.692,112.621h-0.487c0,1.195,0.487,2.066,0.487,2.066s0.489-0.871,0.489-2.066H98.692z"></path>
					</g>
					<g>
						<path fill="#FFFFFF" d="M101.015,110.844h-0.488c0,1.195,0.488,2.068,0.488,2.068s0.489-0.873,0.489-2.068H101.015z"></path>
					</g>
				</g>
				<g>
					<g>
						<g>
							<path fill="#FFDB76" d="M78.985,111.877L78.985,111.877c-0.642,0-1.161-0.52-1.161-1.16v-4.098
								c0-0.643,0.52-1.162,1.161-1.162l0,0c0.642,0,1.16,0.52,1.16,1.162v4.098C80.145,111.357,79.626,111.877,78.985,111.877z"></path>
						</g>
						<g>
							<path fill="#FFDB76" d="M83.629,111.877L83.629,111.877c-0.642,0-1.161-0.52-1.161-1.16v-4.098
								c0-0.643,0.52-1.162,1.161-1.162l0,0c0.642,0,1.161,0.52,1.161,1.162v4.098C84.791,111.357,84.271,111.877,83.629,111.877z"></path>
						</g>
						<g>
							<path fill="#FFDB76" d="M81.307,113.654L81.307,113.654c-0.642,0-1.162-0.52-1.162-1.162v-6.967
								c0-0.641,0.521-1.162,1.162-1.162l0,0c0.642,0,1.161,0.521,1.161,1.162v6.967C82.468,113.135,81.949,113.654,81.307,113.654z
								"></path>
						</g>
					</g>
					<g>
						<g>
							<path fill="#FFDB76" d="M96.371,111.877L96.371,111.877c-0.642,0-1.162-0.52-1.162-1.16v-4.098
								c0-0.643,0.521-1.162,1.162-1.162l0,0c0.642,0,1.161,0.52,1.161,1.162v4.098C97.532,111.357,97.012,111.877,96.371,111.877z"></path>
						</g>
						<g>
							<path fill="#FFDB76" d="M101.015,111.877L101.015,111.877c-0.642,0-1.16-0.52-1.16-1.16v-4.098
								c0-0.643,0.519-1.162,1.16-1.162l0,0c0.642,0,1.161,0.52,1.161,1.162v4.098C102.176,111.357,101.657,111.877,101.015,111.877
								z"></path>
						</g>
						<g>
							<path fill="#FFDB76" d="M98.692,113.654L98.692,113.654c-0.641,0-1.16-0.52-1.16-1.162v-6.967
								c0-0.641,0.519-1.162,1.16-1.162l0,0c0.643,0,1.163,0.521,1.163,1.162v6.967C99.855,113.135,99.334,113.654,98.692,113.654z"></path>
						</g>
					</g>
				</g>
			</g>
			<g>
				<g>
					<path fill="#333333" d="M117.083,100.367c0,0,4.536-18.148,0-27.871c-4.538-9.723-15.988-2.377-10.371,9.074
						C112.328,93.021,117.083,100.367,117.083,100.367z"></path>
				</g>
				<g>
					<path fill="#333333" d="M62.918,100.367c0,0-4.537-18.148,0-27.871c4.537-9.723,15.987-2.377,10.37,9.074
						C67.672,93.021,62.918,100.367,62.918,100.367z"></path>
				</g>
			</g>
			<g>
				<g>
					<path fill="#333333" d="M90.187,53.377c0,0,2.95-7.143,14.277-7.143c11.328,0,10.354-6.785,11.219-7.541
						c0,0,5.97,9.709-12.615,9.709C99.714,48.402,94.939,49.178,90.187,53.377z"></path>
				</g>
				<g>
					<path fill="#333333" d="M90.265,53.377c0,0-2.95-7.143-14.278-7.143c-11.327,0-10.354-6.785-11.218-7.541
						c0,0-5.97,9.709,12.614,9.709C80.737,48.402,85.512,49.178,90.265,53.377z"></path>
				</g>
			</g>
		</g>
	</g>
</g>
</svg><style>@media (prefers-color-scheme: light) { :root { filter: none; } }
@media (prefers-color-scheme: dark) { :root { filter: none; } }
</style></svg>