<svg xmlns="http://www.w3.org/2000/svg" viewBox="0 11.940000534057617 244.1199951171875 49.000003814697266" data-asc="0.98974609375"><g fill="#2cdb29"><g fill="#2cdb29" transform="translate(0, 0)"><path d="M34.99 41.80Q34.99 42.97 34.58 44.31Q34.18 45.65 33.26 46.80Q32.35 47.95 30.88 48.72Q29.42 49.49 27.29 49.49L3.20 49.49Q2.51 49.49 1.93 49.24Q1.34 49.00 0.92 48.57Q0.49 48.14 0.24 47.56Q0 46.97 0 46.29L0 17.68Q0 17.02 0.24 16.43Q0.49 15.84 0.92 15.41Q1.34 14.97 1.93 14.72Q2.51 14.48 3.20 14.48L24.44 14.48Q25.61 14.48 26.95 14.89Q28.30 15.31 29.46 16.22Q30.62 17.14 31.38 18.60Q32.15 20.07 32.15 22.19L32.15 23.39Q32.15 25.07 31.59 27.01Q31.03 28.96 29.79 30.69Q30.86 31.35 31.80 32.28Q32.74 33.20 33.45 34.42Q34.16 35.64 34.57 37.18Q34.99 38.72 34.99 40.58L34.99 41.80M28.64 40.58Q28.64 39.33 28.25 38.34Q27.86 37.35 27.15 36.65Q26.44 35.94 25.44 35.56Q24.44 35.18 23.19 35.18L8.89 35.18L8.89 28.78L20.34 28.78Q21.58 28.78 22.58 28.41Q23.58 28.03 24.29 27.32Q25 26.61 25.38 25.62Q25.76 24.63 25.76 23.39L25.76 22.19Q25.76 20.83 24.44 20.83L6.35 20.83L6.35 43.14L27.29 43.14Q27.47 43.14 27.71 43.12Q27.95 43.09 28.15 42.97Q28.34 42.85 28.49 42.55Q28.64 42.26 28.64 41.75L28.64 40.58ZM68.51 40.58Q68.51 42.21 68.09 43.52Q67.68 44.82 66.99 45.81Q66.31 46.80 65.41 47.50Q64.50 48.19 63.51 48.63Q62.52 49.07 61.51 49.28Q60.50 49.49 59.59 49.49L48.14 49.49Q46.83 49.49 45.26 49.02Q43.70 48.56 42.37 47.50Q41.04 46.44 40.15 44.74Q39.26 43.04 39.26 40.58L39.26 31.98Q39.26 29.54 40.15 27.84Q41.04 26.15 42.37 25.09Q43.70 24.02 45.26 23.56Q46.83 23.10 48.14 23.10L59.59 23.10Q62.04 23.10 63.75 23.97Q65.45 24.85 66.50 26.18Q67.55 27.51 68.03 29.08Q68.51 30.64 68.51 31.98L68.51 40.58M62.16 32.03Q62.16 30.71 61.50 30.08Q60.84 29.44 59.59 29.44L48.19 29.44Q46.92 29.44 46.26 30.09Q45.61 30.74 45.61 31.98L45.61 40.58Q45.61 41.82 46.26 42.48Q46.92 43.14 48.19 43.14L59.59 43.14Q60.89 43.14 61.52 42.48Q62.16 41.82 62.16 40.58L62.16 32.03ZM102.61 40.58Q102.61 42.21 102.20 43.52Q101.78 44.82 101.10 45.81Q100.42 46.80 99.51 47.50Q98.61 48.19 97.62 48.63Q96.63 49.07 95.62 49.28Q94.60 49.49 93.70 49.49L82.25 49.49Q80.93 49.49 79.37 49.02Q77.81 48.56 76.48 47.50Q75.15 46.44 74.26 44.74Q73.36 43.04 73.36 40.58L73.36 31.98Q73.36 29.54 74.26 27.84Q75.15 26.15 76.48 25.09Q77.81 24.02 79.37 23.56Q80.93 23.10 82.25 23.10L93.70 23.10Q96.14 23.10 97.85 23.97Q99.56 24.85 100.61 26.18Q101.66 27.51 102.14 29.08Q102.61 30.64 102.61 31.98L102.61 40.58M96.26 32.03Q96.26 30.71 95.61 30.08Q94.95 29.44 93.70 29.44L82.30 29.44Q81.03 29.44 80.37 30.09Q79.71 30.74 79.71 31.98L79.71 40.58Q79.71 41.82 80.37 42.48Q81.03 43.14 82.30 43.14L93.70 43.14Q95.00 43.14 95.63 42.48Q96.26 41.82 96.26 40.58L96.26 32.03ZM139.01 49.49L129.86 49.49L117.07 37.13Q115.99 36.16 116.06 34.69Q116.11 34.01 116.42 33.41Q116.72 32.81 117.26 32.40L128.86 23.05L139.01 23.05L124.07 35.08L139.01 49.49M114.45 49.49L108.11 49.49L108.11 11.94L114.45 11.94L114.45 49.49ZM179.98 49.49L170.97 49.49L156.69 35.18L152.22 35.18L152.22 28.78L156.69 28.78L170.97 14.48L179.98 14.48L161.99 31.98L179.98 49.49M149.68 49.49L143.33 49.49L143.33 14.48L149.68 14.48L149.68 49.49ZM210.74 31.84Q210.74 33.15 210.28 34.68Q209.81 36.21 208.78 37.51Q207.74 38.82 206.07 39.70Q204.39 40.58 202.00 40.58L190.55 40.58L190.55 34.55L202.00 34.55Q203.30 34.55 204.00 33.75Q204.71 32.96 204.71 31.79Q204.71 30.54 203.92 29.83Q203.13 29.13 202.00 29.13L190.55 29.13Q189.26 29.13 188.55 29.92Q187.84 30.71 187.84 31.88L187.84 40.75Q187.84 42.02 188.64 42.72Q189.43 43.43 190.60 43.43L202.00 43.43L202.00 49.49L190.55 49.49Q189.23 49.49 187.71 49.02Q186.18 48.56 184.88 47.52Q183.57 46.48 182.69 44.81Q181.81 43.14 181.81 40.75L181.81 31.84Q181.81 30.52 182.28 28.99Q182.74 27.47 183.78 26.16Q184.81 24.85 186.49 23.97Q188.16 23.10 190.55 23.10L202.00 23.10Q203.32 23.10 204.85 23.56Q206.37 24.02 207.68 25.06Q208.98 26.10 209.86 27.77Q210.74 29.44 210.74 31.84ZM244.12 52.03Q244.12 53.66 243.70 54.97Q243.29 56.27 242.60 57.26Q241.92 58.25 241.02 58.95Q240.11 59.64 239.12 60.08Q238.13 60.52 237.13 60.73Q236.13 60.94 235.23 60.94L223.78 60.94L223.78 54.59L235.23 54.59Q236.50 54.59 237.13 53.93Q237.77 53.27 237.77 52.03L237.77 23.10L244.12 23.10L244.12 52.03M235.23 49.49L223.78 49.49Q222.41 49.49 220.86 49.02Q219.31 48.56 217.97 47.50Q216.63 46.44 215.75 44.74Q214.87 43.04 214.87 40.58L214.87 23.10L221.22 23.10L221.22 40.58Q221.22 41.82 221.88 42.48Q222.53 43.14 223.83 43.14L235.23 43.14L235.23 49.49Z"/></g><g fill="#2cdb29" transform="translate(0, 64.2578125)"><path d=""/></g></g></svg>